<?xml version="1.0" encoding="iso-8859-1"?>
<!-- Generator: Adobe Illustrator 17.0.1, SVG Export Plug-In . SVG Version: 6.00 Build 0)  -->
<!DOCTYPE svg PUBLIC "-//W3C//DTD SVG 1.1//EN" "http://www.w3.org/Graphics/SVG/1.1/DTD/svg11.dtd">
<svg version="1.1" id="Layer_1" xmlns="http://www.w3.org/2000/svg" xmlns:xlink="http://www.w3.org/1999/xlink" x="0px" y="0px"
	 width="573px" height="595.28px" viewBox="0 0 573 595.28" style="enable-background:new 0 0 573 595.28;" xml:space="preserve">
<path style="fill:none;stroke:#202020;stroke-width:11;stroke-miterlimit:10;" d="M106.942,370.988c0-59.385,0-118.77,0-178.155
	c0.58-3.783,0.932-7.617,1.776-11.34c8.99-39.668,33.033-65.176,72.22-76.173c5.351-1.502,10.983-2.003,16.485-2.968
	c59.385,0,118.77,0,178.155,0c3.795,0.583,7.642,0.937,11.377,1.785c39.668,9.001,65.162,33.058,76.144,72.249
	c1.496,5.339,1.997,10.958,2.959,16.447c0,59.385,0,118.77,0,178.155c-0.58,3.783-0.932,7.617-1.776,11.34
	c-8.99,39.668-33.033,65.176-72.22,76.173c-5.351,1.502-10.983,2.003-16.485,2.968c-59.385,0-118.77,0-178.155,0
	c-3.795-0.583-7.642-0.937-11.377-1.785c-39.668-9.001-65.162-33.058-76.145-72.249
	C108.404,382.096,107.904,376.477,106.942,370.988z"/>
<path style="fill:none;stroke:#202020;stroke-width:11;stroke-miterlimit:10;" d="M386.915,288.911c0,6.627-5.373,12-12,12H202.085
	c-6.627,0-12-5.373-12-12v-110c0-6.627,5.373-12,12-12h172.831c6.627,0,12,5.373,12,12V288.911z"/>
<path style="fill:none;stroke:#202020;stroke-width:11;stroke-miterlimit:10;" d="M382.915,384.911c0,6.627-5.373,12-12,12H202.085
	c-6.627,0-12-5.373-12-12v-40c0-6.627,5.373-12,12-12h168.831c6.627,0,12,5.373,12,12V384.911z"/>
</svg>
