<?xml version="1.0" encoding="iso-8859-1"?>
<!-- Generator: Adobe Illustrator 17.0.1, SVG Export Plug-In . SVG Version: 6.00 Build 0)  -->
<!DOCTYPE svg PUBLIC "-//W3C//DTD SVG 1.1//EN" "http://www.w3.org/Graphics/SVG/1.1/DTD/svg11.dtd">
<svg version="1.1" id="Layer_1" xmlns="http://www.w3.org/2000/svg" xmlns:xlink="http://www.w3.org/1999/xlink" x="0px" y="0px"
	 width="158.333px" height="157.639px" viewBox="0 0 158.333 157.639" style="enable-background:new 0 0 158.333 157.639;"
	 xml:space="preserve">
<path style="fill:#929191;" d="M34.811,20.567c-3.619,0-6.58,2.961-6.58,6.58v12.405c0,3.619,2.961,6.58,6.58,6.58h4.392
	c3.619,0,7.765,2.713,9.214,6.03L65.284,90.78c1.448,3.316,5.595,6.03,9.214,6.03h9.145c3.619,0,7.765-2.713,9.214-6.03
	l16.866-38.618c1.448-3.316,5.595-6.03,9.214-6.03h4.392c3.619,0,6.58-2.961,6.58-6.58V27.147c0-3.619-2.961-6.58-6.58-6.58H34.811z
	"/>
<rect x="76.783" y="87.325" style="fill:#929191;" width="4.573" height="35.304"/>
<g>
	<path style="fill:none;stroke:#929191;stroke-width:5;stroke-linecap:round;stroke-miterlimit:10;" d="M90.228,138.074
		c-0.972,0.515-2.667,0.936-3.767,0.936H16.886c-1.1,0-1.205-0.421-0.233-0.936l48.224-25.556c0.972-0.515,2.667-0.937,3.767-0.937
		h69.575c1.1,0,1.205,0.421,0.233,0.937L90.228,138.074z"/>
</g>
<line style="fill:none;stroke:#929191;stroke-width:5;stroke-linecap:round;stroke-miterlimit:10;" x1="47.25" y1="138.67" x2="80.56" y2="121.018"/>
<path style="fill:none;stroke:#929191;stroke-width:5;stroke-linecap:round;stroke-miterlimit:10;" d="M87.584,115.736
	c0,0-3.251-11.28,8.029-15.04c11.28-3.76,5.64-13.371,5.64-13.371"/>
<path style="fill:none;stroke:#929191;stroke-width:5;stroke-linecap:round;stroke-miterlimit:10;" d="M94.221,114.627
	c0,0,2.042-11.56,13.826-9.975c11.784,1.585,10.947-9.527,10.947-9.527"/>
</svg>
