<?xml version="1.0" encoding="iso-8859-1"?>
<!-- Generator: Adobe Illustrator 17.0.1, SVG Export Plug-In . SVG Version: 6.00 Build 0)  -->
<!DOCTYPE svg PUBLIC "-//W3C//DTD SVG 1.1//EN" "http://www.w3.org/Graphics/SVG/1.1/DTD/svg11.dtd">
<svg version="1.1" id="Layer_1" xmlns="http://www.w3.org/2000/svg" xmlns:xlink="http://www.w3.org/1999/xlink" x="0px" y="0px"
	 width="158.333px" height="157.639px" viewBox="0 0 158.333 157.639" style="enable-background:new 0 0 158.333 157.639;"
	 xml:space="preserve">
<path style="fill:#858484;" d="M59.778,67.405c0,1.513-0.981,2.751-2.179,2.751H36.293c-1.198,0-2.179-1.238-2.179-2.751v-0.714
	c0-1.513,0.981-2.751,2.179-2.751h21.306c1.198,0,2.179,1.238,2.179,2.751V67.405z"/>
<path style="fill:#858484;" d="M55.111,81.468c0,1.513-0.802,2.751-1.783,2.751H35.897c-0.981,0-1.783-1.238-1.783-2.751v-0.714
	c0-1.513,0.802-2.751,1.783-2.751h17.432c0.981,0,1.783,1.238,1.783,2.751V81.468z"/>
<path style="fill:#858484;" d="M86.129,94.552c1.874-3.846,5.166-6.475,8.762-7.443c-0.36-2.672,0.181-5.691,1.731-8.521
	l30.434-55.564c3.356-6.127,8.5-9.972,11.431-8.544c2.931,1.428,3.073,7.848,0.316,14.268l-25,58.212
	c-1.273,2.965-3.318,5.252-5.643,6.615c1.454,3.428,1.412,7.641-0.462,11.487c-3.232,6.633-21.837,14.834-27.793,11.932
	C88.08,108.592,82.897,101.185,86.129,94.552z"/>
<path style="fill:#858484;" d="M127.513,61.921v52.58c0,5.303-4.314,9.618-9.618,9.618h-82.47c-5.304,0-9.619-4.314-9.619-9.618
	V61.557c0-5.303,4.314-9.618,9.619-9.618h72.724l4.521-8.254H35.425c-9.855,0-17.873,8.018-17.873,17.872v52.944
	c0,9.855,8.018,17.872,17.873,17.872h82.47c9.855,0,17.872-8.017,17.872-17.872V61.557c0-3.982-1.325-7.651-3.535-10.625
	L127.513,61.921z"/>
<polygon style="fill:#858484;" points="30.557,116.78 46.559,91.029 56.931,106.406 65.453,99.742 75.094,116.78 "/>
<circle style="fill:none;stroke:#858484;stroke-width:6;stroke-miterlimit:10;" cx="74.984" cy="74.405" r="10.466"/>
</svg>
