<?xml version="1.0" encoding="iso-8859-1"?>
<!-- Generator: Adobe Illustrator 17.0.1, SVG Export Plug-In . SVG Version: 6.00 Build 0)  -->
<!DOCTYPE svg PUBLIC "-//W3C//DTD SVG 1.1//EN" "http://www.w3.org/Graphics/SVG/1.1/DTD/svg11.dtd">
<svg version="1.1" id="Layer_1" xmlns="http://www.w3.org/2000/svg" xmlns:xlink="http://www.w3.org/1999/xlink" x="0px" y="0px"
	 width="158.333px" height="157.639px" viewBox="0 0 158.333 157.639" style="enable-background:new 0 0 158.333 157.639;"
	 xml:space="preserve">
<path style="fill:#929191;" d="M54.182,36.524l-1.719,1.264l-3.364,0.282c-6.454,0.542-14.209,5.368-17.233,10.725L30.452,51.3
	c-1.154,2.044-1.783,4.59-1.92,7.256c-4.145,4.879-7.298,12.427-7.465,18.542l-0.095,3.489c-0.184,6.738,3.519,14.798,8.489,18.995
	c0.617,3.856,2.043,7.572,4.103,10.101l1.816,2.231c3.273,4.021,9.745,6.56,15.516,6.384l1.682,0.893
	c10.051,5.337,25.173,0.392,25.173-10.988V44.958C77.75,33.578,63.351,29.782,54.182,36.524z"/>
<g>
	<path style="fill:#858484;" d="M83.018,63.689h22.524v-23.98c5.494-1.62,9.519-6.703,9.519-12.715
		c0-7.313-5.949-13.263-13.262-13.263s-13.263,5.95-13.263,13.263c0,6.013,4.025,11.095,9.52,12.716v16.494H83.018
		c-2.067,0-3.743,1.676-3.743,3.743C79.275,62.013,80.95,63.689,83.018,63.689z M96.021,26.993c0-3.186,2.591-5.777,5.777-5.777
		c3.185,0,5.776,2.591,5.776,5.777c0,3.185-2.591,5.776-5.776,5.776C98.613,32.769,96.021,30.178,96.021,26.993z"/>
	<path style="fill:#858484;" d="M124.787,65.393c-6.013,0-11.095,4.025-12.715,9.519H83.018c-2.067,0-3.743,1.676-3.743,3.743
		c0,2.067,1.676,3.743,3.743,3.743h29.054c1.62,5.494,6.703,9.519,12.715,9.519c7.313,0,13.262-5.949,13.262-13.262
		C138.049,71.342,132.1,65.393,124.787,65.393z M124.787,84.431c-3.185,0-5.776-2.591-5.776-5.776c0-3.185,2.591-5.776,5.776-5.776
		s5.776,2.591,5.776,5.776C130.563,81.84,127.972,84.431,124.787,84.431z"/>
	<path style="fill:#858484;" d="M105.541,118.676V94.742H83.018c-2.067,0-3.743,1.676-3.743,3.743c0,2.067,1.676,3.743,3.743,3.743
		h15.038v16.448c-5.495,1.62-9.52,6.703-9.52,12.716c0,7.313,5.95,13.263,13.263,13.263s13.262-5.95,13.262-13.263
		C115.06,125.379,111.036,120.296,105.541,118.676z M101.798,137.168c-3.186,0-5.777-2.591-5.777-5.777
		c0-3.185,2.591-5.776,5.777-5.776c3.185,0,5.776,2.591,5.776,5.776C107.575,134.577,104.983,137.168,101.798,137.168z"/>
</g>
</svg>
