<?xml version="1.0" encoding="iso-8859-1"?>
<!-- Generator: Adobe Illustrator 17.0.1, SVG Export Plug-In . SVG Version: 6.00 Build 0)  -->
<!DOCTYPE svg PUBLIC "-//W3C//DTD SVG 1.1//EN" "http://www.w3.org/Graphics/SVG/1.1/DTD/svg11.dtd">
<svg version="1.1" id="Layer_1" xmlns="http://www.w3.org/2000/svg" xmlns:xlink="http://www.w3.org/1999/xlink" x="0px" y="0px"
	 width="573px" height="595.28px" viewBox="0 0 573 595.28" style="enable-background:new 0 0 573 595.28;" xml:space="preserve">
<path style="fill:none;stroke:#202020;stroke-width:11;stroke-miterlimit:10;" d="M94.913,370.988c0-59.385,0-118.77,0-178.155
	c0.58-3.783,0.932-7.617,1.776-11.34c8.99-39.668,33.033-65.176,72.22-76.173c5.351-1.502,10.983-2.003,16.485-2.968
	c59.385,0,118.77,0,178.155,0c3.795,0.583,7.642,0.937,11.377,1.785c39.668,9.001,65.162,33.058,76.144,72.249
	c1.496,5.339,1.997,10.958,2.959,16.447c0,59.385,0,118.77,0,178.155c-0.58,3.783-0.932,7.617-1.776,11.34
	c-8.99,39.668-33.033,65.176-72.22,76.173c-5.351,1.502-10.983,2.003-16.485,2.968c-59.385,0-118.77,0-178.155,0
	c-3.795-0.583-7.642-0.937-11.377-1.785c-39.668-9.001-65.162-33.058-76.145-72.249C96.375,382.096,95.875,376.477,94.913,370.988z"
	/>
<path style="fill:none;stroke:#202020;stroke-width:11;stroke-miterlimit:10;" d="M216,218c0,6.627-5.373,12-12,12h-32.831
	c-6.627,0-12-5.373-12-12v-40c0-6.627,5.373-12,12-12H204c6.627,0,12,5.373,12,12V218z"/>
<path style="fill:none;stroke:#202020;stroke-width:11;stroke-miterlimit:10;" d="M388.415,218c0,6.627-5.373,12-12,12H253.585
	c-6.627,0-12-5.373-12-12v-40c0-6.627,5.373-12,12-12h122.831c6.627,0,12,5.373,12,12V218z"/>
<path style="fill:none;stroke:#202020;stroke-width:11;stroke-miterlimit:10;" d="M216,301.911c0,6.627-5.373,12-12,12h-32.831
	c-6.627,0-12-5.373-12-12v-40c0-6.627,5.373-12,12-12H204c6.627,0,12,5.373,12,12V301.911z"/>
<path style="fill:none;stroke:#202020;stroke-width:11;stroke-miterlimit:10;" d="M388.415,301.911c0,6.627-5.373,12-12,12H253.585
	c-6.627,0-12-5.373-12-12v-40c0-6.627,5.373-12,12-12h122.831c6.627,0,12,5.373,12,12V301.911z"/>
<path style="fill:none;stroke:#202020;stroke-width:11;stroke-miterlimit:10;" d="M216,384c0,6.627-5.373,12-12,12h-32.831
	c-6.627,0-12-5.373-12-12v-40c0-6.627,5.373-12,12-12H204c6.627,0,12,5.373,12,12V384z"/>
<path style="fill:none;stroke:#202020;stroke-width:11;stroke-miterlimit:10;" d="M388.415,384c0,6.627-5.373,12-12,12H253.585
	c-6.627,0-12-5.373-12-12v-40c0-6.627,5.373-12,12-12h122.831c6.627,0,12,5.373,12,12V384z"/>
</svg>
