<?xml version="1.0" encoding="iso-8859-1"?>
<!-- Generator: Adobe Illustrator 17.0.1, SVG Export Plug-In . SVG Version: 6.00 Build 0)  -->
<!DOCTYPE svg PUBLIC "-//W3C//DTD SVG 1.1//EN" "http://www.w3.org/Graphics/SVG/1.1/DTD/svg11.dtd">
<svg version="1.1" id="Layer_1" xmlns="http://www.w3.org/2000/svg" xmlns:xlink="http://www.w3.org/1999/xlink" x="0px" y="0px"
	 width="158.333px" height="157.639px" viewBox="0 0 158.333 157.639" style="enable-background:new 0 0 158.333 157.639;"
	 xml:space="preserve">
<path style="fill:none;stroke:#858484;stroke-width:9;stroke-miterlimit:10;" d="M109.01,19.193h-3.856v14.062
	c0,2.935-1.462,5.315-3.266,5.315H98.97c-1.804,0-3.266-2.379-3.266-5.315V19.193H82.663v14.062c0,2.935-1.462,5.315-3.266,5.315
	h-2.918c-1.804,0-3.266-2.379-3.266-5.315V19.193H61.495v14.062c0,2.935-1.462,5.315-3.266,5.315h-2.918
	c-1.804,0-3.266-2.379-3.266-5.315V19.193h-2.722c-13.472,0-24.494,17.937-24.494,39.86v50.072c0,21.923,11.023,39.86,24.494,39.86
	h59.686c13.472,0,24.494-17.937,24.494-39.86V59.054C133.504,37.131,122.482,19.193,109.01,19.193z"/>
<g>
	<path style="fill:#929191;" d="M111.75,68.527c0.428-1.013,0.023-1.911-0.9-1.995c-0.923-0.084-2.897,3.048-3.211,4.102
		l-0.929,3.447c-0.192,1.083-0.635,2.823-0.985,3.866l-2.311,3.51c-0.775,0.78-1.881,1.652-2.456,1.937c0,0,0,0-0.539,0.223
		c-0.467,0.194-0.924,0.15-1.137-0.372c-0.23-0.564,0.033-0.953,0.575-1.174c0.167-0.068,0.339-0.128,0.498-0.211
		c2.241-1.183,3.354-3.665,3.354-3.665c0.45-1.004,0.965-2.713,1.145-3.798l1.3-4.601c0.309-1.056,1.069-2.663,1.689-3.572
		c0,0,1.784-2.618,4.867-1.301c0.143,0.061,0.143,0.061,0.143,0.061c0.172,0.004,0.601-0.277,0.954-0.623
		c0.353-0.346,1.905-0.601,2.121-0.898c0,0,0,0,0.135-0.321c0.894-2.12,1.779-4.243,2.651-6.372
		c0.677-1.652,0.896-1.756,2.494-1.087c2.86,1.197,2.867,1.2,1.67,4.106c-0.738,1.794-1.469,3.592-2.267,5.359
		c-0.313,0.693-0.418,1.113,0.486,1.378c0.91,0.267,0.91,0.267,0.91,0.267c-0.248,0.753-0.798,2.2-1.222,3.215l-4.195,10.044
		c-0.423,1.016-1.118,2.676-1.545,3.69l-14.593,35.031c-0.423,1.016-1.245,2.61-1.827,3.543c0,0-2.887,4.626-5.051,7.655
		c-1.52,2.128-3.505,4.683-3.505,4.683c-0.675,0.869-1.454,1.834-1.732,2.144c-0.278,0.311-1.555-0.089-1.735-0.384
		c-0.18-0.295,0.037-2.074,0.284-3.146l2.75-10.809c0.27-1.066,0.824-2.775,1.231-3.797l1.919-4.974
		c0.461-0.999,1.186-2.646,1.61-3.661l14.633-35.015c0.424-1.015,1.121-2.675,1.548-3.688L111.75,68.527z"/>
</g>
<line style="fill:none;stroke:#858484;stroke-width:9;stroke-linecap:round;stroke-miterlimit:10;" x1="42.889" y1="63.524" x2="94.889" y2="63.524"/>
<line style="fill:none;stroke:#858484;stroke-width:9;stroke-linecap:round;stroke-miterlimit:10;" x1="42.889" y1="84.028" x2="90.556" y2="84.028"/>
<line style="fill:none;stroke:#858484;stroke-width:9;stroke-linecap:round;stroke-miterlimit:10;" x1="42.889" y1="105.667" x2="82.147" y2="105.667"/>
<line style="fill:none;stroke:#858484;stroke-width:9;stroke-linecap:round;stroke-miterlimit:10;" x1="42.889" y1="125.333" x2="75.698" y2="125.333"/>
</svg>
