<?xml version="1.0" encoding="iso-8859-1"?>
<!-- Generator: Adobe Illustrator 17.0.1, SVG Export Plug-In . SVG Version: 6.00 Build 0)  -->
<!DOCTYPE svg PUBLIC "-//W3C//DTD SVG 1.1//EN" "http://www.w3.org/Graphics/SVG/1.1/DTD/svg11.dtd">
<svg version="1.1" id="Layer_1" xmlns="http://www.w3.org/2000/svg" xmlns:xlink="http://www.w3.org/1999/xlink" x="0px" y="0px"
	 width="158.333px" height="157.639px" viewBox="0 0 158.333 157.639" style="enable-background:new 0 0 158.333 157.639;"
	 xml:space="preserve">
<path style="fill:#858484;" d="M60.778,65.405c0,1.513-0.981,2.751-2.179,2.751H37.293c-1.198,0-2.179-1.238-2.179-2.751v-0.714
	c0-1.513,0.981-2.751,2.179-2.751h21.306c1.198,0,2.179,1.238,2.179,2.751V65.405z"/>
<path style="fill:#858484;" d="M56.111,79.468c0,1.513-0.802,2.751-1.783,2.751H36.896c-0.981,0-1.783-1.238-1.783-2.751v-0.714
	c0-1.513,0.802-2.751,1.783-2.751h17.432c0.981,0,1.783,1.238,1.783,2.751V79.468z"/>
<g>
	<path style="fill:#858484;" d="M66.308,111.92c0,1.65-1.35,3-3,3H36.901c-1.65,0-3-1.35-3-3V97.742c0-1.65,1.35-3,3-3h26.406
		c1.65,0,3,1.35,3,3V111.92z"/>
</g>
<path style="fill:#858484;" d="M87.129,92.552c1.874-3.846,5.166-6.475,8.762-7.443c-0.36-2.672,0.181-5.691,1.731-8.521
	l30.434-55.564c3.356-6.127,8.5-9.972,11.431-8.544c2.931,1.428,3.073,7.848,0.316,14.268l-25,58.212
	c-1.273,2.965-3.318,5.252-5.643,6.615c1.454,3.428,1.412,7.641-0.462,11.487c-3.232,6.633-21.837,14.834-27.793,11.932
	C89.08,106.592,83.897,99.185,87.129,92.552z"/>
<path style="fill:#858484;" d="M128.513,59.921v52.58c0,5.303-4.314,9.618-9.618,9.618h-82.47c-5.304,0-9.619-4.314-9.619-9.618
	V59.557c0-5.303,4.314-9.618,9.619-9.618h72.724l4.521-8.254H36.425c-9.855,0-17.873,8.018-17.873,17.872v52.944
	c0,9.855,8.018,17.872,17.873,17.872h82.47c9.855,0,17.872-8.017,17.872-17.872V59.557c0-3.982-1.325-7.651-3.535-10.625
	L128.513,59.921z"/>
<path style="fill:#858484;" d="M77.66,59.717c-8.98,0-16.285,7.306-16.285,16.285S68.68,92.288,77.66,92.288
	s16.285-7.306,16.285-16.285S86.639,59.717,77.66,59.717z M77.66,88.813c-1.281,0-2.956-2.331-3.89-6.3h7.779
	C80.616,86.483,78.94,88.813,77.66,88.813z M73.208,79.038c-0.092-0.956-0.145-1.969-0.145-3.036c0-0.544,0.014-1.074,0.04-1.59
	h9.113c0.025,0.516,0.04,1.046,0.04,1.59c0,1.067-0.052,2.079-0.145,3.036H73.208z M64.849,76.003c0-0.539,0.037-1.069,0.102-1.59
	h4.673c-0.023,0.522-0.036,1.052-0.036,1.59c0,1.044,0.046,2.056,0.13,3.036h-4.503C64.978,78.064,64.849,77.048,64.849,76.003z
	 M77.66,63.192c1.429,0,3.349,2.903,4.182,7.746h-8.363C74.31,66.095,76.231,63.192,77.66,63.192z M85.695,74.413h4.632v-0.319
	c0.094,0.623,0.143,1.26,0.143,1.909c0,1.046-0.129,2.062-0.367,3.036H85.6c0.084-0.979,0.13-1.992,0.13-3.036
	C85.731,75.464,85.718,74.935,85.695,74.413z M89.424,70.938h-4.062c-0.367-2.42-0.995-4.563-1.824-6.312
	C86.155,65.984,88.248,68.217,89.424,70.938z M71.781,64.626c-0.829,1.749-1.458,3.891-1.824,6.312h-4.062
	C67.071,68.217,69.164,65.984,71.781,64.626z M66.633,82.513h3.58c0.375,1.833,0.908,3.474,1.569,4.866
	C69.644,86.27,67.857,84.578,66.633,82.513z M83.537,87.379c0.66-1.392,1.194-3.033,1.569-4.866h3.58
	C87.462,84.578,85.675,86.27,83.537,87.379z"/>
</svg>
